<?xml version="1.0" encoding="UTF-8"?>
<svg version="1.1" xmlns="http://www.w3.org/2000/svg" width="500" height="500">
<path d="M0 0 C3.28034766 2.96397141 6.48278587 6.00488068 9.671875 9.06640625 C10.44942139 9.80310547 10.44942139 9.80310547 11.24267578 10.5546875 C24.47587875 23.12851119 34.32678948 37.46181918 43.671875 53.06640625 C44.15333984 53.86997559 44.63480469 54.67354492 45.13085938 55.50146484 C74.12918616 104.52762647 79.16947119 163.26560681 65.671875 218.06640625 C54.20385095 260.80494015 26.79293 301.23716071 -8.328125 328.06640625 C-8.86453613 328.4845459 -9.40094727 328.90268555 -9.95361328 329.33349609 C-43.53101108 355.42809416 -85.78205956 371.52873066 -128.390625 372.75390625 C-129.65922363 372.79153076 -130.92782227 372.82915527 -132.23486328 372.86791992 C-191.36483043 374.35459484 -244.6295425 352.55007669 -287.328125 312.06640625 C-287.83520996 311.58800293 -288.34229492 311.10959961 -288.86474609 310.61669922 C-302.11280825 298.03335406 -311.9747433 283.68484643 -321.328125 268.06640625 C-321.80958984 267.26283691 -322.29105469 266.45926758 -322.78710938 265.63134766 C-351.88736956 216.43285184 -356.753413 158.05414835 -343.328125 103.06640625 C-331.95205241 60.12503923 -303.81772871 18.7340204 -268.328125 -7.93359375 C-267.27625 -8.72894531 -266.224375 -9.52429688 -265.140625 -10.34375 C-256.2892073 -16.91056054 -246.998466 -22.65439975 -237.328125 -27.93359375 C-236.69165039 -28.28131836 -236.05517578 -28.62904297 -235.39941406 -28.98730469 C-160.53892763 -68.93108324 -63.0181839 -56.01821564 0 0 Z M-231.328125 14.06640625 C-232.11960938 14.73027344 -232.91109375 15.39414063 -233.7265625 16.078125 C-251.85686536 31.61439992 -262.59240321 50.67275342 -264.99755859 74.34960938 C-266.71374629 96.71292911 -258.65940827 116.4995533 -244.51171875 133.54296875 C-231.81886826 148.21127182 -218.43674919 160.26191843 -202.328125 171.06640625 C-201.43061523 171.6706543 -200.53310547 172.27490234 -199.60839844 172.89746094 C-187.88682102 180.75601764 -176.05182674 188.1803353 -163.60986328 194.84082031 C-159.41580549 197.09356696 -155.24890769 199.39594442 -151.078125 201.69140625 C-150.22750488 202.15853027 -149.37688477 202.6256543 -148.50048828 203.10693359 C-142.70310742 206.29464797 -136.94416805 209.53888671 -131.21484375 212.84765625 C-128.11116138 214.63221072 -124.98209111 216.36772516 -121.84765625 218.09765625 C-110.85111914 224.18951606 -100.28328183 230.37967708 -90.328125 238.06640625 C-89.35875 238.77925781 -88.389375 239.49210938 -87.390625 240.2265625 C-75.77611024 249.11489254 -65.0238982 262.36218878 -62.328125 277.06640625 C-61.11240077 292.01046261 -65.15670082 304.38520856 -74.703125 315.94140625 C-76.73309174 318.15012534 -76.73309174 318.15012534 -76.328125 322.06640625 C-70.29789201 321.59765296 -65.99809539 319.71955752 -60.765625 316.75390625 C-59.98131104 316.31167725 -59.19699707 315.86944824 -58.38891602 315.41381836 C-41.70273455 305.68402446 -26.40126064 290.94169737 -20.70581055 271.99633789 C-16.35155651 254.4458506 -18.98465647 236.26603014 -27.9765625 220.734375 C-37.07394369 205.98092969 -52.34903346 194.33759655 -66.96777344 185.5 C-69.83192666 183.76041501 -72.67664765 181.99051019 -75.5234375 180.22265625 C-87.98445517 172.51672653 -100.55996706 165.22070325 -113.52294922 158.38061523 C-125.34588797 152.09076878 -136.6975827 145.07259405 -148.09130859 138.046875 C-151.12027124 136.19358302 -154.16492964 134.37175225 -157.22265625 132.56640625 C-158.12387207 132.03354004 -159.02508789 131.50067383 -159.95361328 130.95166016 C-161.58336693 129.99095346 -163.21559356 129.03442056 -164.85107422 128.08349609 C-170.36345803 124.82191089 -175.34629434 121.08527121 -180.328125 117.06640625 C-181.27300781 116.31875 -182.21789062 115.57109375 -183.19140625 114.80078125 C-199.46999168 101.61175191 -216.51565746 86.86796408 -220.328125 65.06640625 C-221.94811938 48.06637628 -219.20186261 33.0691596 -208.29296875 19.54296875 C-200.31871978 10.4014135 -191.4332675 2.75300055 -181.328125 -3.93359375 C-181.823125 -5.41859375 -181.823125 -5.41859375 -182.328125 -6.93359375 C-198.7919095 -6.93359375 -219.38960562 3.15050904 -231.328125 14.06640625 Z M-133.328125 2.06640625 C-131.97133977 6.01786839 -130.19572105 8.62320699 -127.453125 11.75390625 C-120.29911369 20.59886569 -118.24259243 28.46333469 -119.07421875 39.86621094 C-119.54718996 43.96468839 -120.46517063 47.97301587 -121.328125 52.00390625 C-125.05605235 69.61621259 -126.3293986 90.19636381 -116.63671875 106.1015625 C-116.20488281 106.74996094 -115.77304687 107.39835937 -115.328125 108.06640625 C-114.94785156 108.64261719 -114.56757813 109.21882813 -114.17578125 109.8125 C-110.37664712 114.94197066 -105.20659978 117.10691466 -99.328125 119.06640625 C-91.35875231 119.68410858 -83.90768679 120.11738298 -77.328125 115.06640625 C-73.14460627 111.21316531 -71.63927898 106.65774902 -71.328125 101.06640625 C-72.18336793 96.10206509 -74.9563231 91.98542304 -77.453125 87.69140625 C-80.87816004 81.55701514 -82.22580902 75.98357289 -80.640625 69.06640625 C-79.02066121 66.59789 -78.16336292 65.90931482 -75.328125 65.06640625 C-70.61987381 64.53339668 -67.06166219 64.96684014 -63.0078125 67.5703125 C-58.49302142 71.59162642 -56.12223829 77.50200334 -53.421875 82.80859375 C-47.23462196 95.1363048 -47.23462196 95.1363048 -36.328125 103.06640625 C-30.47748476 103.98415374 -27.10169916 102.31119856 -22.4765625 98.98046875 C-16.92789247 94.03710818 -12.79973613 87.22154854 -11.95703125 79.796875 C-11.83417201 73.24197308 -11.84802724 68.20432524 -15.6484375 62.71484375 C-20.38128515 58.07004908 -25.34211769 56.23426337 -31.578125 54.62890625 C-49.3904587 49.70278466 -49.3904587 49.70278466 -53.328125 43.06640625 C-53.70273316 40.3292693 -53.46711221 37.84615041 -53.328125 35.06640625 C-47.1412889 33.58221089 -43.83360086 34.71619596 -38.265625 37.56640625 C-31.63712663 40.95980439 -31.63712663 40.95980439 -24.328125 40.06640625 C-22.93130932 38.89657181 -22.93130932 38.89657181 -23.203125 35.62890625 C-24.25061169 28.32268657 -30.37020247 23.37197729 -35.9140625 19.05078125 C-46.20934053 12.10675208 -57.28783712 8.02351164 -69.69140625 7.85546875 C-71.15170289 7.82734687 -72.61198916 7.79868223 -74.07226562 7.76953125 C-76.33796275 7.72878217 -78.60347775 7.69184572 -80.86938477 7.66503906 C-94.77689971 7.48687543 -107.75302478 5.47212429 -121.203125 1.87890625 C-127.48571714 -0.15381153 -127.48571714 -0.15381153 -133.328125 2.06640625 Z M-282.328125 216.06640625 C-285.74848569 221.19694728 -285.08685132 227.07484603 -283.95751953 233.01611328 C-278.72138121 255.58980845 -266.67209619 275.02540598 -251.328125 292.06640625 C-250.74675781 292.71996094 -250.16539062 293.37351562 -249.56640625 294.046875 C-228.42758413 316.4636108 -197.36916935 327.50769792 -167.328125 331.06640625 C-166.44898438 331.17597656 -165.56984375 331.28554688 -164.6640625 331.3984375 C-147.18236887 333.64840047 -147.18236887 333.64840047 -130.765625 329.50390625 C-130.29125 329.02953125 -129.816875 328.55515625 -129.328125 328.06640625 C-129.53073982 326.10650193 -129.53073982 326.10650193 -130.328125 324.06640625 C-131.98590362 322.97676216 -131.98590362 322.97676216 -134.203125 322.31640625 C-168.10996911 309.89364009 -168.10996911 309.89364009 -173.328125 302.06640625 C-173.16387392 296.57572734 -170.72600956 293.23153872 -167.640625 288.94140625 C-158.40326052 275.64429064 -158.40326052 275.64429064 -155.328125 260.06640625 C-155.988125 259.40640625 -156.648125 258.74640625 -157.328125 258.06640625 C-164.17739263 258.3400642 -170.18096717 260.55376423 -176.578125 262.87890625 C-178.62366209 263.60296581 -180.66923465 264.32692517 -182.71484375 265.05078125 C-185.90998826 266.19375978 -189.1002628 267.34835092 -192.28515625 268.51953125 C-193.30996094 268.885625 -194.33476562 269.25171875 -195.390625 269.62890625 C-196.22722656 269.93957031 -197.06382812 270.25023437 -197.92578125 270.5703125 C-201.18953757 271.24429145 -203.17079427 271.19310636 -206.328125 270.06640625 C-209.82437347 264.41322944 -210.32448965 257.92528828 -211.265625 251.44140625 C-212.84959514 235.92007274 -212.84959514 235.92007274 -220.328125 223.06640625 C-230.39585649 227.80416224 -236.04480871 241.3352381 -240.328125 251.06640625 C-240.328125 251.72640625 -240.328125 252.38640625 -240.328125 253.06640625 C-244.88502424 253.63601865 -247.46998574 253.36714402 -251.265625 250.69140625 C-258.86148646 244.42738177 -264.08240732 236.05355146 -269.44921875 227.9140625 C-273.65347056 220.63449435 -273.65347056 220.63449435 -280.203125 216.06640625 C-280.904375 216.06640625 -281.605625 216.06640625 -282.328125 216.06640625 Z " fill="#0045FF" transform="translate(389.328125,89.93359375)"/>
</svg>
